<svg width="28" height="28" viewBox="0 0 28 28" fill="none" xmlns="http://www.w3.org/2000/svg">
<path fill-rule="evenodd" clip-rule="evenodd" d="M12.2842 15.716C10.5292 13.961 9.20622 11.996 8.32722 10.0025C8.14122 9.58099 8.25072 9.08749 8.57622 8.76199L9.80472 7.53499C10.8112 6.52849 10.8112 5.10499 9.93222 4.22599L8.17122 2.46499C6.99972 1.29349 5.10072 1.29349 3.92922 2.46499L2.95122 3.44299C1.83972 4.55449 1.37622 6.15799 1.67622 7.74799C2.41722 11.6675 4.69422 15.959 8.36772 19.6325C12.0412 23.306 16.3327 25.583 20.2522 26.324C21.8422 26.624 23.4457 26.1605 24.5572 25.049L25.5337 24.0725C26.7052 22.901 26.7052 21.002 25.5337 19.8305L23.7742 18.071C22.8952 17.192 21.4702 17.192 20.5927 18.071L19.2382 19.427C18.9127 19.7525 18.4192 19.862 17.9977 19.676C16.0042 18.7955 14.0392 17.471 12.2842 15.716Z" stroke="white" stroke-width="1.5" stroke-linecap="round" stroke-linejoin="round"/>
</svg>
