<svg width="22" height="22" viewBox="0 0 22 22" fill="none" xmlns="http://www.w3.org/2000/svg">
<path d="M3.07347 13.5774L3.80288 13.4029L3.07347 13.5774ZM3.07347 8.09689L3.80288 8.27144L3.07347 8.09689ZM18.9265 8.0969L18.1971 8.27144L18.9265 8.0969ZM18.9265 13.5774L18.1971 13.4029L18.9265 13.5774ZM13.7954 18.6072L13.6274 17.8763L13.7954 18.6072ZM8.20457 18.6072L8.0365 19.3382L8.20457 18.6072ZM8.20456 3.06709L8.37263 3.79801L8.20456 3.06709ZM13.7954 3.06709L13.6274 3.79801L13.7954 3.06709ZM3.80288 13.4029C3.39904 11.7152 3.39904 9.95907 3.80288 8.27144L2.34406 7.92235C1.88531 9.83947 1.88531 11.8348 2.34406 13.752L3.80288 13.4029ZM18.1971 8.27144C18.601 9.95907 18.601 11.7152 18.1971 13.4029L19.6559 13.752C20.1147 11.8348 20.1147 9.83947 19.6559 7.92236L18.1971 8.27144ZM13.6274 17.8763C11.8993 18.2736 10.1007 18.2736 8.37263 17.8763L8.0365 19.3382C9.98577 19.7864 12.0142 19.7864 13.9635 19.3382L13.6274 17.8763ZM8.37263 3.79801C10.1007 3.40066 11.8993 3.40066 13.6274 3.79801L13.9635 2.33616C12.0142 1.88795 9.98577 1.88795 8.0365 2.33616L8.37263 3.79801ZM8.37263 17.8763C6.09787 17.3532 4.33229 15.6153 3.80288 13.4029L2.34406 13.752C3.00906 16.531 5.21932 18.6904 8.0365 19.3382L8.37263 17.8763ZM13.9635 19.3382C16.7807 18.6904 18.9909 16.531 19.6559 13.752L18.1971 13.4029C17.6677 15.6153 15.9021 17.3532 13.6274 17.8763L13.9635 19.3382ZM13.6274 3.79801C15.9021 4.32107 17.6677 6.05903 18.1971 8.27144L19.6559 7.92236C18.9909 5.14333 16.7807 2.98394 13.9635 2.33616L13.6274 3.79801ZM8.0365 2.33616C5.21932 2.98394 3.00906 5.14332 2.34406 7.92235L3.80288 8.27144C4.33229 6.05903 6.09787 4.32107 8.37263 3.79801L8.0365 2.33616ZM13.6572 19.25C13.6572 17.9064 13.6588 16.9757 13.7549 16.2749C13.8479 15.5971 14.0163 15.2471 14.2701 14.9984L13.22 13.9272C12.6359 14.4998 12.3854 15.2215 12.2689 16.071C12.1555 16.8975 12.1572 17.9497 12.1572 19.25H13.6572ZM18.6287 12.8914C17.3009 12.8914 16.2311 12.8899 15.3917 13.0005C14.5322 13.1138 13.8021 13.3566 13.22 13.9272L14.2701 14.9984C14.5259 14.7476 14.8891 14.5797 15.5876 14.4877C16.3063 14.393 17.2593 14.3914 18.6287 14.3914V12.8914Z" fill="#363853"/>
<path d="M8.25 8.25H11M8.25 11H12.8333" stroke="#363853" stroke-width="1.5" stroke-linecap="round"/>
</svg>
