<svg width="22" height="22" viewBox="0 0 22 22" fill="none" xmlns="http://www.w3.org/2000/svg">
<path d="M2.64478 8.11135C3.26138 5.62818 5.23035 3.70823 7.72785 3.15482L8.1439 3.06263C10.0251 2.64579 11.9746 2.64579 13.8558 3.06263L14.2718 3.15482C16.7693 3.70823 18.7383 5.62818 19.3549 8.11136C19.8259 10.0083 19.8259 11.9917 19.3549 13.8886C18.7383 16.3718 16.7693 18.2918 14.2718 18.8452L13.8558 18.9374C11.9746 19.3542 10.0251 19.3542 8.1439 18.9374L7.72785 18.8452C5.23035 18.2918 3.26138 16.3718 2.64478 13.8887C2.17374 11.9917 2.17375 10.0083 2.64478 8.11135Z" stroke="#363853" stroke-width="1.5"/>
<path fill-rule="evenodd" clip-rule="evenodd" d="M11.0002 6.41666C11.3507 6.41666 11.6348 6.68432 11.6348 7.01449V7.50359H11.7051C12.8853 7.50359 13.75 8.47013 13.75 9.55069C13.75 9.88086 13.4659 10.1485 13.1154 10.1485C12.7649 10.1485 12.4808 9.88086 12.4808 9.55069C12.4808 9.03042 12.0827 8.69924 11.7051 8.69924H11.6348V10.5813L12.4917 10.8748C13.2703 11.1415 13.75 11.8669 13.75 12.6352C13.75 13.613 12.9663 14.4963 11.8861 14.4963H11.6348V14.9855C11.6348 15.3157 11.3507 15.5833 11.0002 15.5833C10.6497 15.5833 10.3656 15.3157 10.3656 14.9855V14.4963H10.2949C9.11467 14.4963 8.25 13.5298 8.25 12.4492C8.25 12.1191 8.53413 11.8514 8.88462 11.8514C9.2351 11.8514 9.51923 12.1191 9.51923 12.4492C9.51923 12.9695 9.91735 13.3007 10.2949 13.3007H10.3656V11.4188L9.50832 11.1251C8.72969 10.8584 8.25 10.133 8.25 9.36476C8.25 8.38689 9.03367 7.50359 10.1139 7.50359H10.3656V7.01449C10.3656 6.68432 10.6497 6.41666 11.0002 6.41666ZM10.3656 8.69924H10.1139C9.83634 8.69924 9.51923 8.94717 9.51923 9.36476C9.51923 9.68409 9.71673 9.92425 9.94207 10.0014L10.3656 10.1465V8.69924ZM11.6348 11.8536V13.3007H11.8861C12.1637 13.3007 12.4808 13.0528 12.4808 12.6352C12.4808 12.3158 12.2833 12.0757 12.0579 11.9985L11.6348 11.8536Z" fill="#363853"/>
</svg>
