<svg width="24" height="24" viewBox="0 0 24 24" fill="none" xmlns="http://www.w3.org/2000/svg">
<path d="M20 11.1755C20 15.6907 16.4183 21 12 21C7.58172 21 4 15.6907 4 11.1755C4 6.66029 7.58172 3 12 3C16.4183 3 20 6.66029 20 11.1755Z" stroke="url(#paint0_linear)" stroke-width="1.5"/>
<path d="M9.5 10.5C9.5 9.11929 10.6193 8 12 8C13.3807 8 14.5 9.11929 14.5 10.5C14.5 11.8807 13.3807 13 12 13C10.6193 13 9.5 11.8807 9.5 10.5Z" stroke="url(#paint1_linear)" stroke-width="1.5"/>
<defs>
<linearGradient id="paint0_linear" x1="3.39742" y1="3.20498" x2="22.6523" y2="12.9754" gradientUnits="userSpaceOnUse">
<stop stop-color="#FFDD00"/>
<stop offset="1" stop-color="#FBB034"/>
</linearGradient>
<linearGradient id="paint1_linear" x1="9.31169" y1="8.05694" x2="15.0185" y2="11.3147" gradientUnits="userSpaceOnUse">
<stop stop-color="#FFDD00"/>
<stop offset="1" stop-color="#FBB034"/>
</linearGradient>
</defs>
</svg>
