<svg width="18" height="20" viewBox="0 0 18 20" fill="none" xmlns="http://www.w3.org/2000/svg">
<path d="M2.63498 5.93962L1.91086 5.74429H1.91086L2.63498 5.93962ZM7.02937 1.32187L7.26156 2.03502L7.02937 1.32187ZM2.58024 6.14256L3.30435 6.33789H3.30435L2.58024 6.14256ZM2.37443 10.4901L3.11377 10.3641L2.37443 10.4901ZM2.39835 10.6304L1.65901 10.7565H1.65901L2.39835 10.6304ZM2.44241 10.8555L2.74148 11.5433C3.07066 11.4002 3.25227 11.0439 3.17468 10.6934L2.44241 10.8555ZM2.91421 15.4155L3.06457 14.6808L2.91421 15.4155ZM3.28987 15.4924L3.44022 14.7576H3.44022L3.28987 15.4924ZM14.7101 15.4924L14.8605 16.2272L14.7101 15.4924ZM15.0858 15.4155L14.9354 14.6808L15.0858 15.4155ZM15.5563 10.855L14.8249 10.6889C14.7451 11.0406 14.9268 11.3993 15.2577 11.5429L15.5563 10.855ZM15.6063 10.6035L16.3456 10.7295L16.3456 10.7295L15.6063 10.6035ZM15.6316 10.4548L14.8923 10.3288V10.3288L15.6316 10.4548ZM15.446 6.17266L14.7204 6.3622V6.3622L15.446 6.17266ZM15.3728 5.89241L16.0985 5.70286V5.70286L15.3728 5.89241ZM11.1044 1.32847L11.3405 0.616613L11.3405 0.616612L11.1044 1.32847ZM11.8053 16.6483L12.5381 16.8079L11.8053 16.6483ZM11.7328 16.9811L12.4656 17.1407L11.7328 16.9811ZM6.2672 16.9811L7.00002 16.8216L6.2672 16.9811ZM6.19471 16.6483L5.46189 16.8079L6.19471 16.6483ZM9.88498 18.8719L9.71052 18.1424H9.71052L9.88498 18.8719ZM9.68905 18.9187L9.86351 19.6482H9.86351L9.68905 18.9187ZM8.31095 18.9187L8.48541 18.1893H8.48541L8.31095 18.9187ZM8.11501 18.8719L7.94055 19.6013H7.94055L8.11501 18.8719ZM7.16556 15.5578C7.43761 15.2455 7.40494 14.7717 7.09259 14.4997C6.78024 14.2276 6.30649 14.2603 6.03444 14.5726L7.16556 15.5578ZM11.9656 14.5726C11.6935 14.2603 11.2198 14.2276 10.9074 14.4997C10.5951 14.7717 10.5624 15.2455 10.8344 15.5578L11.9656 14.5726ZM3.3591 6.13495C3.88057 4.2018 5.36216 2.65345 7.26156 2.03502L6.79717 0.608717C4.41967 1.38281 2.56533 3.31814 1.91086 5.74429L3.3591 6.13495ZM3.30435 6.33789L3.3591 6.13495L1.91086 5.74429L1.85612 5.94722L3.30435 6.33789ZM3.11377 10.3641C2.88534 9.02405 2.95039 7.65007 3.30435 6.33789L1.85612 5.94722C1.44563 7.46896 1.37021 9.06223 1.6351 10.6162L3.11377 10.3641ZM3.13768 10.5044L3.11377 10.3641L1.6351 10.6162L1.65901 10.7565L3.13768 10.5044ZM3.17468 10.6934C3.16087 10.631 3.14852 10.568 3.13768 10.5044L1.65901 10.7565C1.67398 10.8443 1.69104 10.9313 1.71014 11.0176L3.17468 10.6934ZM1.75 13.0614C1.75 12.3809 2.15824 11.7969 2.74148 11.5433L2.14334 10.1677C1.02929 10.6521 0.25 11.7656 0.25 13.0614H1.75ZM3.06457 14.6808C2.30191 14.5247 1.75 13.8495 1.75 13.0614H0.25C0.25 14.5573 1.29863 15.8505 2.76386 16.1503L3.06457 14.6808ZM3.44022 14.7576L3.06457 14.6808L2.76386 16.1503L3.13952 16.2272L3.44022 14.7576ZM14.5598 14.7576C10.8909 15.5084 7.10908 15.5084 3.44022 14.7576L3.13952 16.2272C7.00679 17.0185 10.9932 17.0185 14.8605 16.2272L14.5598 14.7576ZM14.9354 14.6808L14.5598 14.7576L14.8605 16.2272L15.2361 16.1503L14.9354 14.6808ZM16.25 13.0614C16.25 13.8495 15.6981 14.5247 14.9354 14.6808L15.2361 16.1503C16.7014 15.8505 17.75 14.5574 17.75 13.0614H16.25ZM15.2577 11.5429C15.8413 11.7963 16.25 12.3806 16.25 13.0614H17.75C17.75 11.765 16.9699 10.651 15.855 10.167L15.2577 11.5429ZM14.8669 10.4774C14.8548 10.5487 14.8408 10.6192 14.8249 10.6889L16.2877 11.021C16.3095 10.9248 16.3289 10.8276 16.3456 10.7295L14.8669 10.4774ZM14.8923 10.3288L14.8669 10.4774L16.3456 10.7295L16.3709 10.5808L14.8923 10.3288ZM14.7204 6.3622C15.0585 7.65691 15.1172 9.00937 14.8923 10.3288L16.3709 10.5808C16.6316 9.05152 16.5637 7.48391 16.1717 5.98312L14.7204 6.3622ZM14.6472 6.08195L14.7204 6.3622L16.1717 5.98312L16.0985 5.70286L14.6472 6.08195ZM10.8682 2.04032C12.7265 2.65676 14.1496 4.17715 14.6472 6.08195L16.0985 5.70286C15.4731 3.30882 13.6832 1.39375 11.3405 0.616613L10.8682 2.04032ZM7.26156 2.03502C8.43138 1.65414 9.70391 1.65409 10.8682 2.04032L11.3405 0.616612C9.86886 0.128429 8.26807 0.129806 6.79717 0.608717L7.26156 2.03502ZM11.0725 16.4887L11 16.8216L12.4656 17.1407L12.5381 16.8079L11.0725 16.4887ZM7.00002 16.8216L6.92754 16.4887L5.46189 16.8079L5.53437 17.1407L7.00002 16.8216ZM9.71052 18.1424L9.51458 18.1893L9.86351 19.6482L10.0594 19.6013L9.71052 18.1424ZM8.48541 18.1893L8.28948 18.1424L7.94055 19.6013L8.13649 19.6482L8.48541 18.1893ZM6.92754 16.4887C6.8554 16.1574 6.9442 15.8119 7.16556 15.5578L6.03444 14.5726C5.50107 15.185 5.2891 16.0143 5.46189 16.8079L6.92754 16.4887ZM12.5381 16.8079C12.7109 16.0143 12.4989 15.185 11.9656 14.5726L10.8344 15.5578C11.0558 15.8119 11.1446 16.1574 11.0725 16.4887L12.5381 16.8079ZM9.51459 18.1893C9.17624 18.2702 8.82376 18.2702 8.48541 18.1893L8.13649 19.6482C8.70421 19.7839 9.29579 19.7839 9.86351 19.6482L9.51459 18.1893ZM5.53437 17.1407C5.79878 18.355 6.73275 19.3124 7.94055 19.6013L8.28948 18.1424C7.64483 17.9883 7.14254 17.4761 7.00002 16.8216L5.53437 17.1407ZM11 16.8216C10.8575 17.4761 10.3552 17.9883 9.71052 18.1424L10.0594 19.6013C11.2673 19.3124 12.2012 18.355 12.4656 17.1407L11 16.8216Z" fill="#363853"/>
</svg>
