<svg width="24" height="24" viewBox="0 0 24 24" fill="none" xmlns="http://www.w3.org/2000/svg">
<path d="M4 17.6289C4 15.877 5.27299 14.3847 7.00303 14.1086L7.15886 14.0837C8.54419 13.8626 9.95581 13.8626 11.3411 14.0837L11.497 14.1086C13.227 14.3847 14.5 15.877 14.5 17.6289C14.5 18.3861 13.8861 19 13.1289 19H5.3711C4.61386 19 4 18.3861 4 17.6289Z" stroke="#363853" stroke-width="1.5"/>
<path d="M12.3125 8.0625C12.3125 9.75387 10.9414 11.125 9.25 11.125C7.55863 11.125 6.1875 9.75387 6.1875 8.0625C6.1875 6.37113 7.55863 5 9.25 5C10.9414 5 12.3125 6.37113 12.3125 8.0625Z" stroke="#363853" stroke-width="1.5"/>
<path d="M16 11.125C17.6914 11.125 19.0625 9.75387 19.0625 8.0625C19.0625 6.37113 17.6914 5 16 5M18.0911 19H19.8789C20.6361 19 21.25 18.3861 21.25 17.6289C21.25 15.877 19.977 14.3847 18.247 14.1086V14.1086C18.1432 14.092 18.0382 14.0837 17.9331 14.0837C17.6533 14.0837 17.5665 14.0837 17.086 14.0837" stroke="#363853" stroke-width="1.5" stroke-linecap="round"/>
</svg>
