<svg width="22" height="22" viewBox="0 0 22 22" fill="none" xmlns="http://www.w3.org/2000/svg">
<path d="M8.20456 18.9265C5.65859 18.3293 3.67067 16.3414 3.07347 13.7954C2.64218 11.9568 2.64218 10.0432 3.07347 8.20456C3.67067 5.65859 5.65859 3.67067 8.20457 3.07347C10.0432 2.64218 11.9568 2.64218 13.7954 3.07347C16.3414 3.67067 18.3293 5.65859 18.9265 8.20456C19.3578 10.0432 19.3578 11.9568 18.9265 13.7954C18.3293 16.3414 16.3414 18.3293 13.7954 18.9265C11.9568 19.3578 10.0432 19.3578 8.20456 18.9265Z" stroke="#363853" stroke-width="1.5"/>
<circle cx="11.0002" cy="14.2083" r="0.916667" fill="#363853"/>
<path d="M9.1665 9.16667V8.70833C9.1665 7.69581 9.98732 6.875 10.9998 6.875V6.875V6.875C12.0124 6.875 12.8332 7.69581 12.8332 8.70833V8.81954C12.8332 9.33527 12.6283 9.82987 12.2636 10.1945L10.9998 11.4583" stroke="#363853" stroke-width="1.5" stroke-linecap="round" stroke-linejoin="round"/>
</svg>
