<svg width="22" height="22" viewBox="0 0 22 22" fill="none" xmlns="http://www.w3.org/2000/svg">
<path d="M19.2502 11H15.5835M17.4168 12.8333L17.4168 9.16667" stroke="#363853" stroke-width="1.5" stroke-linecap="round"/>
<path d="M2.75 17.5188C2.75 15.3068 4.30588 13.4227 6.42037 13.0741L6.61083 13.0427C8.30401 12.7635 10.0293 12.7635 11.7225 13.0427L11.913 13.0741C14.0275 13.4227 15.5833 15.3068 15.5833 17.5188C15.5833 18.4749 14.8331 19.25 13.9075 19.25H4.42578C3.50027 19.25 2.75 18.4749 2.75 17.5188Z" stroke="#363853" stroke-width="1.5"/>
<path d="M12.9097 6.35938C12.9097 8.35278 11.2339 9.96875 9.16669 9.96875C7.09945 9.96875 5.42363 8.35278 5.42363 6.35938C5.42363 4.36597 7.09945 2.75 9.16669 2.75C11.2339 2.75 12.9097 4.36597 12.9097 6.35938Z" stroke="#363853" stroke-width="1.5"/>
</svg>
