<svg width="18" height="18" viewBox="0 0 18 18" fill="none" xmlns="http://www.w3.org/2000/svg">
<path fill-rule="evenodd" clip-rule="evenodd" d="M0.919266 0.011375C0.492083 -0.0608251 0.0857382 0.218208 0.0116694 0.634613C-0.0623994 1.05102 0.223856 1.44711 0.651039 1.51931C1.58738 1.67757 2.32458 2.38577 2.50056 3.29609L2.60154 3.81848C2.19116 4.4158 1.88139 5.08586 1.69556 5.80661C1.25365 7.52057 1.25365 9.31448 1.69556 11.0284C1.73327 11.1747 1.7761 11.3189 1.82383 11.4608C1.85833 11.5634 1.8954 11.6648 1.93496 11.765L2.1228 12.2436H2.14759C2.51791 12.9914 3.03256 13.6558 3.65658 14.2038C3.52518 14.3665 3.41631 14.5466 3.33367 14.7396C3.16044 15.1442 3.10969 15.5887 3.18743 16.0205C3.26516 16.4524 3.46814 16.8535 3.77235 17.1764C4.07655 17.4994 4.46927 17.7306 4.90406 17.8429C5.33885 17.9552 5.79752 17.9437 6.22584 17.8099C6.65416 17.6761 7.03421 17.4255 7.32105 17.0878C7.60345 16.7553 7.78387 16.3521 7.84184 15.9245C9.00891 16.0972 10.1952 16.1047 11.364 15.9469C11.4036 16.3101 11.5317 16.66 11.739 16.9669C11.9871 17.3341 12.3382 17.6242 12.7505 17.8026C13.1628 17.981 13.6191 18.0402 14.0649 17.9732C14.5108 17.9061 14.9275 17.7157 15.2655 17.4245C15.6035 17.1333 15.8486 16.7535 15.9717 16.3305C16.0947 15.9074 16.0905 15.4588 15.9595 15.038C15.8777 14.775 15.7486 14.5299 15.5794 14.3134C16.2613 13.7453 16.8212 13.042 17.2165 12.2436H17.2413L17.4292 11.7648C17.4657 11.6724 17.5001 11.5789 17.5323 11.4844C17.5833 11.3349 17.6288 11.1828 17.6686 11.0284C18.1105 9.31447 18.1105 7.52057 17.6686 5.80662C17.0651 3.46603 15.1546 1.66002 12.736 1.14388L12.3038 1.05165C10.5764 0.683013 8.78769 0.683012 7.06031 1.05165L6.62809 1.14388C5.60153 1.36296 4.6665 1.81442 3.88409 2.4405C3.42206 1.1841 2.29858 0.244499 0.919266 0.011375ZM6.96387 14.1961C5.7257 13.9319 4.66287 13.2225 3.96131 12.2436H15.4028C14.7013 13.2225 13.6384 13.9319 12.4003 14.1961L11.968 14.2884C10.4619 14.6098 8.90224 14.6098 7.39609 14.2884L6.96387 14.1961ZM12.9209 15.7132C12.9207 15.6915 12.9213 15.6699 12.923 15.6485C13.3919 15.5343 13.8405 15.3712 14.2628 15.165C14.3529 15.2535 14.4198 15.3623 14.4571 15.4822C14.5008 15.6225 14.5022 15.772 14.4611 15.913C14.4201 16.0541 14.3384 16.1806 14.2258 16.2777C14.1131 16.3748 13.9742 16.4383 13.8256 16.4606C13.6769 16.483 13.5249 16.4632 13.3874 16.4038C13.25 16.3443 13.1329 16.2476 13.0502 16.1252C12.9675 16.0028 12.9226 15.8598 12.9209 15.7132ZM4.94727 15.0873C5.36964 15.3074 5.81998 15.4838 6.29195 15.6103C6.2926 15.6459 6.2907 15.6816 6.2862 15.7173C6.26788 15.8623 6.20734 15.9992 6.11172 16.1118C6.01611 16.2243 5.88942 16.3079 5.74665 16.3525C5.60388 16.3971 5.45098 16.4009 5.30606 16.3635C5.16113 16.3261 5.03022 16.249 4.92882 16.1413C4.82742 16.0337 4.75976 15.9 4.73384 15.756C4.70793 15.6121 4.72485 15.4639 4.78259 15.329C4.82134 15.2386 4.87738 15.1566 4.94727 15.0873ZM10.6327 4.23572C10.6897 3.90222 11.0133 3.67693 11.3554 3.73251L11.3981 3.73945C13.4883 4.07903 15.0202 5.84183 15.0202 7.90737C15.0202 8.24547 14.7391 8.51955 14.3922 8.51955C14.0454 8.51955 13.7642 8.24547 13.7642 7.90737C13.7642 6.44034 12.6761 5.18832 11.1916 4.94714L11.1489 4.9402C10.8068 4.88462 10.5756 4.56921 10.6327 4.23572Z" fill="#091020"/>
</svg>
