<svg width="20" height="20" viewBox="0 0 20 20" fill="none" xmlns="http://www.w3.org/2000/svg">
<path d="M3.22977 12.013L3.95838 11.8352L3.22977 12.013ZM3.22977 6.71362L2.50116 6.53578L3.22977 6.71362ZM18.1816 6.71363L18.9102 6.53578V6.53578L18.1816 6.71363ZM18.1816 12.013L18.9102 12.1909L18.1816 12.013ZM13.2447 16.5967L13.0798 15.8651L13.2447 16.5967ZM8.16664 16.5967L8.00172 17.3284H8.00172L8.16664 16.5967ZM8.16664 2.12989L8.33156 2.86154L8.16664 2.12989ZM13.2447 2.12989L13.4096 1.39825V1.39825L13.2447 2.12989ZM7.71943 16.4959L7.88435 15.7643L7.88435 15.7643L7.71943 16.4959ZM13.6919 16.4959L13.8568 17.2276H13.8568L13.6919 16.4959ZM13.6919 2.2307L13.527 2.96234V2.96234L13.6919 2.2307ZM7.71943 2.2307L7.5545 1.49906L7.71943 2.2307ZM4.07315 3.61107L3.33541 3.74609L4.07315 3.61107ZM3.46979 4.48034C3.54435 4.88779 3.9351 5.15764 4.34255 5.08307C4.75 5.00851 5.01985 4.61776 4.94528 4.21031L3.46979 4.48034ZM1.63181 0.261674C1.22404 0.188877 0.83447 0.460423 0.761674 0.86819C0.688877 1.27596 0.960423 1.66553 1.36819 1.73833L1.63181 0.261674ZM7.17092 16.8331C7.2458 16.9941 7.27487 17.1753 7.25344 17.3546L8.74283 17.5327C8.79721 17.0778 8.72414 16.6158 8.53101 16.2006L7.17092 16.8331ZM7.25344 17.3546C7.23201 17.5338 7.16138 17.7007 7.0526 17.836L8.22154 18.776C8.50849 18.4192 8.68845 17.9875 8.74283 17.5327L7.25344 17.3546ZM7.0526 17.836C6.94398 17.9711 6.80246 18.0685 6.64656 18.1199L7.11662 19.5443C7.55163 19.4008 7.93443 19.133 8.22154 18.776L7.0526 17.836ZM6.64656 18.1199C6.49086 18.1713 6.32484 18.1756 6.16715 18.1326L5.77249 19.5798C6.21464 19.7003 6.68141 19.688 7.11662 19.5443L6.64656 18.1199ZM6.16715 18.1326C6.00929 18.0896 5.86365 18 5.74891 17.8714L4.62941 18.8698C4.93436 19.2117 5.33051 19.4592 5.77249 19.5798L6.16715 18.1326ZM5.74891 17.8714C5.63399 17.7425 5.55531 17.58 5.52502 17.4024L4.04634 17.6544C4.12331 18.106 4.32465 18.528 4.62941 18.8698L5.74891 17.8714ZM5.52502 17.4024C5.49473 17.2246 5.51468 17.042 5.58163 16.8768L4.19149 16.3133C4.01945 16.7377 3.96939 17.2028 4.04634 17.6544L5.52502 17.4024ZM5.58163 16.8768C5.64853 16.7117 5.75861 16.5731 5.89583 16.4752L5.02418 15.2544C4.6515 15.5205 4.36359 15.8887 4.19149 16.3133L5.58163 16.8768ZM15.428 16.6178C15.5565 16.7305 15.6535 16.8813 15.7043 17.0537L17.1431 16.6298C17.0133 16.1891 16.7623 15.7929 16.417 15.4901L15.428 16.6178ZM15.7043 17.0537C15.7551 17.2263 15.7568 17.4108 15.709 17.5844L17.1552 17.9826C17.2771 17.5397 17.273 17.0705 17.1431 16.6298L15.7043 17.0537ZM15.709 17.5844C15.6612 17.758 15.5668 17.9107 15.4402 18.0259L16.4497 19.1354C16.7894 18.8262 17.0332 18.4256 17.1552 17.9826L15.709 17.5844ZM15.4402 18.0259C15.3137 18.141 15.1604 18.2141 14.9991 18.2397L15.2344 19.7212C15.6883 19.6491 16.1098 19.4447 16.4497 19.1354L15.4402 18.0259ZM14.9991 18.2397C14.838 18.2653 14.6726 18.2429 14.5218 18.174L13.8984 19.5383C14.3164 19.7294 14.7804 19.7933 15.2344 19.7212L14.9991 18.2397ZM14.5218 18.174C14.3708 18.105 14.2389 17.9912 14.1442 17.8432L12.8805 18.6513C13.1281 19.0384 13.4805 19.3474 13.8984 19.5383L14.5218 18.174ZM14.1442 17.8432C14.0493 17.6949 13.9967 17.5196 13.9947 17.3383L12.4947 17.3551C12.4999 17.8145 12.633 18.2644 12.8805 18.6513L14.1442 17.8432ZM13.9947 17.3383C13.9926 17.1569 14.0413 16.9803 14.1329 16.8295L12.8511 16.0504C12.6126 16.4429 12.4896 16.8957 12.4947 17.3551L13.9947 17.3383ZM7.88435 2.96234L8.33156 2.86154L8.00172 1.39825L7.5545 1.49906L7.88435 2.96234ZM13.0798 2.86154L13.527 2.96234L13.8568 1.49906L13.4096 1.39825L13.0798 2.86154ZM13.527 15.7643L13.0798 15.8651L13.4096 17.3284L13.8568 17.2276L13.527 15.7643ZM8.33157 15.8651L7.88435 15.7643L7.5545 17.2276L8.00172 17.3284L8.33157 15.8651ZM3.95838 11.8352C3.56232 10.2126 3.56232 8.51404 3.95838 6.89147L2.50116 6.53578C2.04806 8.39204 2.04806 10.3346 2.50116 12.1909L3.95838 11.8352ZM17.453 6.89148C17.849 8.51404 17.849 10.2126 17.453 11.8352L18.9102 12.1909C19.3633 10.3346 19.3633 8.39205 18.9102 6.53578L17.453 6.89148ZM13.0798 15.8651C11.5155 16.2177 9.89585 16.2177 8.33156 15.8651L8.00172 17.3284C9.78318 17.73 11.6282 17.73 13.4096 17.3284L13.0798 15.8651ZM8.33156 2.86154C9.89585 2.50892 11.5155 2.50892 13.0798 2.86154L13.4096 1.39825C11.6282 0.996681 9.78318 0.99668 8.00172 1.39825L8.33156 2.86154ZM7.88435 15.7643C5.96997 15.3328 4.44241 13.8182 3.95838 11.8352L2.50116 12.1909C3.1157 14.7085 5.06608 16.6666 7.5545 17.2276L7.88435 15.7643ZM13.8568 17.2276C16.3453 16.6666 18.2956 14.7085 18.9102 12.1909L17.453 11.8352C16.9689 13.8182 15.4414 15.3328 13.527 15.7643L13.8568 17.2276ZM13.527 2.96234C15.4414 3.39388 16.9689 4.90847 17.453 6.89148L18.9102 6.53578C18.2956 4.01813 16.3453 2.05999 13.8568 1.49906L13.527 2.96234ZM7.5545 1.49906C5.06607 2.05999 3.1157 4.01813 2.50116 6.53578L3.95838 6.89147C4.44241 4.90847 5.96997 3.39388 7.88435 2.96234L7.5545 1.49906ZM3.66602 13.4586H17.7453V11.9586H3.66602V13.4586ZM3.33541 3.74609L3.46979 4.48034L4.94528 4.21031L4.8109 3.47605L3.33541 3.74609ZM1.36819 1.73833C2.35153 1.91388 3.14482 2.70471 3.33541 3.74609L4.8109 3.47605C4.51183 1.8419 3.25386 0.551251 1.63181 0.261674L1.36819 1.73833Z" fill="white"/>
</svg>
