<svg width="18" height="18" viewBox="0 0 18 18" fill="none" xmlns="http://www.w3.org/2000/svg">
<path d="M17.7972 8.78209C18.0676 8.50996 18.0676 8.06873 17.7972 7.7966L12.0664 2.02821C11.48 1.43789 10.991 0.945636 10.5506 0.607406C10.0857 0.250401 9.59458 0 9 0C8.40542 0 7.91427 0.250401 7.44941 0.607407C7.00899 0.94564 6.51998 1.43789 5.93355 2.02821L0.202772 7.7966C-0.0675907 8.06873 -0.0675907 8.50996 0.202772 8.78209C0.473135 9.05423 0.91148 9.05423 1.18184 8.78209L1.57845 8.38288V11.4332C1.57845 14.4273 3.62594 17.0276 6.52196 17.7114C8.15186 18.0962 9.84812 18.0962 11.478 17.7114C14.374 17.0276 16.4215 14.4273 16.4215 11.4332V8.38286L16.8182 8.78209C17.0885 9.05423 17.5269 9.05423 17.7972 8.78209Z" fill="#091020"/>
</svg>
