<svg width="18" height="18" viewBox="0 0 18 18" fill="none" xmlns="http://www.w3.org/2000/svg">
<path d="M10.8031 0.309476C9.04394 -0.103159 7.21319 -0.103158 5.45407 0.309476C2.9014 0.908251 0.908252 2.9014 0.309477 5.45407C-0.103159 7.21319 -0.103159 9.04394 0.309477 10.8031C0.908253 13.3557 2.9014 15.3489 5.45407 15.9477C7.21319 16.3603 9.04394 16.3603 10.8031 15.9477C11.8355 15.7055 12.7764 15.2352 13.5706 14.5921L16.767 17.7884C17.049 18.0705 17.5064 18.0705 17.7884 17.7884C18.0705 17.5064 18.0705 17.049 17.7884 16.767L14.5921 13.5706C15.2352 12.7764 15.7055 11.8355 15.9477 10.8031C16.3603 9.04394 16.3603 7.21319 15.9477 5.45407C15.3489 2.9014 13.3557 0.908251 10.8031 0.309476Z" fill="#091020"/>
</svg>
